<svg width="13" height="12" viewBox="0 0 13 12" fill="none" xmlns="http://www.w3.org/2000/svg">
<path d="M0.319336 1.00769C0.320462 0.846045 0.385135 0.691328 0.499383 0.576965C0.61363 0.462602 0.768282 0.397774 0.929929 0.396484H12.0191C12.3564 0.396484 12.6297 0.67039 12.6297 1.00769V10.8646C12.6286 11.0262 12.5639 11.1809 12.4496 11.2953C12.3354 11.4097 12.1807 11.4745 12.0191 11.4758H0.929929C0.767933 11.4756 0.612628 11.4112 0.498137 11.2966C0.383646 11.1819 0.319336 11.0266 0.319336 10.8646V1.00769ZM1.55037 1.62752V10.2448H11.3986V1.62752H1.55037ZM6.47451 7.78269C6.96424 7.78269 7.43392 7.58814 7.78022 7.24185C8.12651 6.89555 8.32106 6.42587 8.32106 5.93614C8.32106 5.4464 8.12651 4.97673 7.78022 4.63043C7.43392 4.28413 6.96424 4.08959 6.47451 4.08959C5.98477 4.08959 5.51509 4.28413 5.1688 4.63043C4.8225 4.97673 4.62796 5.4464 4.62796 5.93614C4.62796 6.42587 4.8225 6.89555 5.1688 7.24185C5.51509 7.58814 5.98477 7.78269 6.47451 7.78269ZM6.47451 9.01372C5.65828 9.01372 4.87548 8.68948 4.29833 8.11232C3.72117 7.53516 3.39692 6.75237 3.39692 5.93614C3.39692 5.11991 3.72117 4.33712 4.29833 3.75996C4.87548 3.1828 5.65828 2.85855 6.47451 2.85855C7.29073 2.85855 8.07353 3.1828 8.65069 3.75996C9.22785 4.33712 9.55209 5.11991 9.55209 5.93614C9.55209 6.75237 9.22785 7.53516 8.65069 8.11232C8.07353 8.68948 7.29073 9.01372 6.47451 9.01372ZM9.55209 2.24304H10.7831V3.47407H9.55209V2.24304Z" fill="black"/>
</svg>
