<svg width="23" height="27" viewBox="0 0 23 27" fill="none" xmlns="http://www.w3.org/2000/svg">
<path d="M13.5272 15.1906V7.97689C13.5272 6.58548 12.9952 5.25106 12.0483 4.26719C11.1014 3.28331 9.81715 2.73058 8.47803 2.73058C7.13891 2.73058 5.85464 3.28331 4.90774 4.26719C3.96084 5.25106 3.42888 6.58548 3.42888 7.97689V15.1906C3.42888 17.4516 4.29332 19.62 5.83203 21.2188C7.37074 22.8176 9.45769 23.7158 11.6338 23.7158C13.8098 23.7158 15.8968 22.8176 17.4355 21.2188C18.9742 19.62 19.8386 17.4516 19.8386 15.1906V2.73058H22.3632V15.1906C22.3632 18.1473 21.2328 20.983 19.2206 23.0737C17.2085 25.1644 14.4794 26.339 11.6338 26.339C8.78813 26.339 6.05905 25.1644 4.04688 23.0737C2.03472 20.983 0.904297 18.1473 0.904297 15.1906V7.97689C0.904297 5.88978 1.70224 3.88815 3.12259 2.41234C4.54294 0.936524 6.46935 0.107422 8.47803 0.107422C10.4867 0.107422 12.4131 0.936524 13.8335 2.41234C15.2538 3.88815 16.0518 5.88978 16.0518 7.97689V15.1906C16.0518 16.4081 15.5863 17.5757 14.7578 18.4366C13.9292 19.2974 12.8055 19.7811 11.6338 19.7811C10.462 19.7811 9.33829 19.2974 8.50975 18.4366C7.68121 17.5757 7.21574 16.4081 7.21574 15.1906V7.97689H9.74032V15.1906C9.74032 15.7123 9.93981 16.2128 10.2949 16.5817C10.65 16.9507 11.1316 17.1579 11.6338 17.1579C12.1359 17.1579 12.6175 16.9507 12.9726 16.5817C13.3277 16.2128 13.5272 15.7123 13.5272 15.1906Z" fill="#717070"/>
</svg>
