<svg width="218" height="216" viewBox="0 0 218 216" fill="none" xmlns="http://www.w3.org/2000/svg">
<circle cx="143.751" cy="72.2512" r="142.942" fill="url(#paint0_linear_96_4802)"/>
<path d="M81.9785 88.9086V68.4465C81.9785 67.7065 82.2725 66.9968 82.7958 66.4735C83.3191 65.9502 84.0288 65.6562 84.7688 65.6562H140.574C141.315 65.6562 142.024 65.9502 142.548 66.4735C143.071 66.9968 143.365 67.7065 143.365 68.4465V88.9086C143.365 118.212 118.494 127.92 113.528 129.567C112.973 129.758 112.37 129.758 111.815 129.567C106.849 127.92 81.9785 118.212 81.9785 88.9086Z" stroke="white" stroke-width="5.58057" stroke-linecap="round" stroke-linejoin="round"/>
<path d="M128.018 85.1885L107.556 104.72L97.3252 94.9545" stroke="white" stroke-width="5.58057" stroke-linecap="round" stroke-linejoin="round"/>
<defs>
<linearGradient id="paint0_linear_96_4802" x1="-38.0861" y1="336.33" x2="467.985" y2="-91.9928" gradientUnits="userSpaceOnUse">
<stop offset="0.0260417" stop-color="#FF8DB6"/>
<stop offset="0.515625" stop-color="#FF3355"/>
</linearGradient>
</defs>
</svg>
