<svg width="19" height="21" viewBox="0 0 19 21" fill="none" xmlns="http://www.w3.org/2000/svg">
<path d="M16.5723 8.49219H17.5723C17.8375 8.49219 18.0918 8.59754 18.2794 8.78508C18.4669 8.97262 18.5723 9.22697 18.5723 9.49219V19.4922C18.5723 19.7574 18.4669 20.0118 18.2794 20.1993C18.0918 20.3868 17.8375 20.4922 17.5723 20.4922H1.57227C1.30705 20.4922 1.0527 20.3868 0.865159 20.1993C0.677622 20.0118 0.572266 19.7574 0.572266 19.4922V9.49219C0.572266 9.22697 0.677622 8.97262 0.865159 8.78508C1.0527 8.59754 1.30705 8.49219 1.57227 8.49219H2.57227V7.49219C2.57227 6.57293 2.75333 5.66268 3.10511 4.8134C3.45689 3.96412 3.97251 3.19245 4.62252 2.54244C5.27253 1.89243 6.0442 1.37681 6.89348 1.02503C7.74276 0.673248 8.65301 0.492188 9.57227 0.492188C10.4915 0.492187 11.4018 0.673248 12.251 1.02503C13.1003 1.37681 13.872 1.89243 14.522 2.54244C15.172 3.19245 15.6876 3.96412 16.0394 4.8134C16.3912 5.66268 16.5723 6.57293 16.5723 7.49219V8.49219ZM2.57227 10.4922V18.4922H16.5723V10.4922H2.57227ZM8.57227 12.4922H10.5723V16.4922H8.57227V12.4922ZM14.5723 8.49219V7.49219C14.5723 6.16611 14.0455 4.89434 13.1078 3.95665C12.1701 3.01897 10.8983 2.49219 9.57227 2.49219C8.24618 2.49219 6.97441 3.01897 6.03673 3.95665C5.09905 4.89434 4.57227 6.16611 4.57227 7.49219V8.49219H14.5723Z" fill="black"/>
</svg>
