<svg width="986" height="1024" viewBox="0 0 986 1024" fill="none" xmlns="http://www.w3.org/2000/svg">
<g opacity="0.07">
<path d="M833.381 829.321C834.495 826.631 835.069 823.748 835.069 820.837V665.614H675.896V820.837C675.895 823.753 676.471 826.641 677.589 829.335C678.706 832.029 680.345 834.475 682.41 836.535C684.475 838.594 686.926 840.226 689.623 841.336C692.32 842.447 695.209 843.014 698.125 843.006H812.899C815.811 843.006 818.694 842.433 821.384 841.319C824.074 840.205 826.518 838.572 828.577 836.513C830.635 834.455 832.267 832.011 833.381 829.321Z" fill="url(#paint0_linear_96_4570)"/>
<path d="M677.891 288.88C676.578 291.766 675.898 294.899 675.896 298.07V537.994H835.069V197.492C835.07 193.23 833.842 189.058 831.533 185.476C829.225 181.893 825.932 179.053 822.051 177.293C818.169 175.534 813.863 174.931 809.648 175.556C805.432 176.182 801.485 178.009 798.281 180.819L683.507 281.337C681.118 283.422 679.204 285.994 677.891 288.88Z" fill="url(#paint1_linear_96_4570)"/>
<path d="M151.166 836.516C147.008 832.359 144.672 826.72 144.672 820.84V663.938H303.785V820.84C303.785 826.72 301.449 832.359 297.291 836.516C293.134 840.674 287.496 843.009 281.616 843.009H166.841C160.962 843.009 155.323 840.674 151.166 836.516Z" fill="url(#paint2_linear_96_4570)"/>
<path d="M301.823 288.888C303.126 291.775 303.794 294.906 303.785 298.073V539.676H144.672V197.494C144.671 193.233 145.899 189.061 148.207 185.479C150.516 181.896 153.809 179.055 157.69 177.296C161.572 175.537 165.879 174.934 170.095 175.559C174.311 176.185 178.256 178.012 181.46 180.822L296.234 281.34C298.615 283.428 300.521 286.002 301.823 288.888Z" fill="url(#paint3_linear_96_4570)"/>
<g filter="url(#filter0_d_96_4570)">
<path d="M524.929 374.125L461.984 390.254C452.437 392.7 442.436 392.785 432.848 390.501C423.26 388.218 414.372 383.634 406.952 377.146L181.39 180.821C178.177 177.996 174.218 176.158 169.986 175.528C165.754 174.897 161.429 175.502 157.532 177.269C153.636 179.035 150.332 181.889 148.017 185.487C145.702 189.085 144.475 193.275 144.482 197.554V359.809C144.491 362.993 145.179 366.138 146.502 369.034C147.826 371.931 149.753 374.511 152.154 376.602L322.563 524.298C326.619 527.822 331.809 529.761 337.181 529.761C342.553 529.761 347.744 527.822 351.8 524.298L410.457 473.194L524.929 374.125Z" fill="white"/>
</g>
<g filter="url(#filter1_d_96_4570)">
<path d="M635.891 322.236C668.599 371.474 718.369 406.869 775.614 421.606L827.564 376.603C831.781 372.924 834.456 367.79 835.054 362.226V197.494C835.094 193.717 834.152 189.994 832.32 186.69C830.488 183.386 827.829 180.614 824.604 178.647C824.194 178.383 823.771 178.141 823.335 177.922L821.583 177.077C820.447 176.604 819.277 176.22 818.081 175.929L816.268 175.566H814.879H814.335C812.308 175.421 810.271 175.583 808.294 176.05H807.328H806.421L805.515 176.352L804.126 176.956C803.666 177.141 803.222 177.363 802.797 177.62L801.045 178.647L799.838 179.493C799.415 179.855 798.932 180.157 798.509 180.58L793.313 185.05L635.891 322.236Z" fill="url(#paint4_linear_96_4570)"/>
</g>
<g filter="url(#filter2_d_96_4570)">
<path fill-rule="evenodd" clip-rule="evenodd" d="M835.057 197.677V359.871C835.057 360.833 834.994 361.792 834.869 362.742V362.226C834.271 367.791 831.596 372.925 827.379 376.603L675.695 508.171V509.145L642.612 537.992H388.553L675.703 287.865L798.028 180.884C801.25 178.043 805.224 176.194 809.473 175.559C813.721 174.924 818.062 175.53 821.974 177.305C825.886 179.079 829.202 181.945 831.524 185.559C833.845 189.174 835.071 193.381 835.057 197.677ZM341.528 665.613V751.614C341.52 755.893 342.748 760.082 345.063 763.681C347.378 767.279 350.683 770.132 354.58 771.899C358.477 773.666 362.8 774.27 367.031 773.64C371.263 773.01 375.224 771.172 378.438 768.347L496.255 665.613H341.528Z" fill="#FEFEFE"/>
</g>
<path d="M251.538 605.165C251.538 606.706 251.438 608.097 251.24 609.34H219.853C220.101 612.62 221.319 615.255 223.506 617.243C225.693 619.231 228.377 620.225 231.558 620.225C236.13 620.225 239.361 618.311 241.249 614.484H250.42C249.177 618.262 246.916 621.368 243.635 623.803C240.405 626.189 236.379 627.382 231.558 627.382C227.631 627.382 224.102 626.512 220.971 624.773C217.889 622.983 215.454 620.498 213.665 617.317C211.925 614.087 211.055 610.359 211.055 606.134C211.055 601.909 211.9 598.207 213.59 595.026C215.33 591.795 217.74 589.31 220.822 587.57C223.953 585.831 227.532 584.961 231.558 584.961C235.434 584.961 238.889 585.806 241.92 587.496C244.952 589.186 247.313 591.571 249.003 594.653C250.693 597.685 251.538 601.189 251.538 605.165ZM242.666 602.481C242.616 599.35 241.498 596.84 239.311 594.951C237.124 593.062 234.415 592.118 231.185 592.118C228.252 592.118 225.742 593.062 223.655 594.951C221.567 596.79 220.325 599.3 219.927 602.481H242.666ZM385.673 574.896V626.711H377.174V591.224L361.369 626.711H355.479L339.599 591.224V626.711H331.1V574.896H340.27L358.461 615.528L376.578 574.896H385.673ZM499.281 616.124H477.586L473.858 626.711H464.986L483.55 574.822H493.391L511.955 626.711H503.008L499.281 616.124ZM496.895 609.191L488.47 585.11L479.971 609.191H496.895ZM628.725 589.807C627.383 587.222 625.519 585.284 623.134 583.992C620.748 582.65 617.99 581.979 614.858 581.979C611.429 581.979 608.372 582.749 605.688 584.29C603.004 585.831 600.892 588.018 599.351 590.851C597.86 593.684 597.115 596.964 597.115 600.692C597.115 604.419 597.86 607.725 599.351 610.607C600.892 613.44 603.004 615.627 605.688 617.168C608.372 618.709 611.429 619.479 614.858 619.479C619.481 619.479 623.233 618.187 626.116 615.602C628.999 613.018 630.763 609.514 631.409 605.09H611.951V598.306H640.505V604.941C639.958 608.967 638.517 612.67 636.181 616.05C633.894 619.43 630.887 622.138 627.16 624.176C623.482 626.164 619.381 627.158 614.858 627.158C609.987 627.158 605.539 626.04 601.513 623.803C597.487 621.517 594.282 618.361 591.896 614.335C589.56 610.309 588.392 605.761 588.392 600.692C588.392 595.622 589.56 591.074 591.896 587.049C594.282 583.023 597.487 579.891 601.513 577.655C605.589 575.368 610.037 574.225 614.858 574.225C620.375 574.225 625.271 575.592 629.545 578.326C633.869 581.01 637.001 584.837 638.939 589.807H628.725ZM728.287 619.33H752.367V626.711H718.222V620.076L742.228 582.277H718.222V574.896H752.367V581.532L728.287 619.33Z" fill="#FEFEFE"/>
<path d="M492.937 1018.59H980.936V512M4.93722 512V5.41016H492.937" stroke="white" stroke-width="9.29523"/>
<path d="M337.423 321.568C305.212 369.955 256.271 404.747 199.987 419.27L148.968 375.022C144.781 371.404 142.127 366.33 141.544 360.827V199.158C141.524 195.433 142.464 191.765 144.274 188.509C146.085 185.253 148.703 182.518 151.878 180.568L153.066 179.915L154.848 179.083C155.942 178.61 157.074 178.233 158.233 177.955H160.015H161.381H161.916C163.908 177.779 165.916 177.939 167.855 178.43H168.805L169.696 178.727H170.647L171.953 179.262L173.319 179.915C173.919 180.228 174.495 180.585 175.042 180.984L176.23 181.816L177.536 182.825L182.644 187.28L337.423 321.568Z" fill="url(#paint5_linear_96_4570)"/>
<path d="M642.35 321.57C674.551 369.942 723.467 404.731 779.727 419.273L830.746 375.025C834.909 371.388 837.558 366.323 838.17 360.829V199.161C838.256 195.418 837.371 191.716 835.602 188.417C833.833 185.117 831.239 182.332 828.073 180.333L826.826 179.68L825.104 178.848C824.007 178.383 822.875 178.006 821.718 177.72H819.877H818.57H817.976C815.984 177.543 813.976 177.704 812.037 178.195H811.146L810.196 178.492H809.305L807.939 179.026L806.632 179.68C806.025 179.979 805.448 180.337 804.91 180.749L803.663 181.58L802.415 182.59L797.308 187.044L642.35 321.57Z" fill="url(#paint6_linear_96_4570)"/>
</g>
<defs>
<filter id="filter0_d_96_4570" x="120.725" y="175.285" width="427.962" height="401.991" filterUnits="userSpaceOnUse" color-interpolation-filters="sRGB">
<feFlood flood-opacity="0" result="BackgroundImageFix"/>
<feColorMatrix in="SourceAlpha" type="matrix" values="0 0 0 0 0 0 0 0 0 0 0 0 0 0 0 0 0 0 127 0" result="hardAlpha"/>
<feOffset dy="23.7574"/>
<feGaussianBlur stdDeviation="11.8787"/>
<feColorMatrix type="matrix" values="0 0 0 0 0 0 0 0 0 0 0 0 0 0 0 0 0 0 0.25 0"/>
<feBlend mode="normal" in2="BackgroundImageFix" result="effect1_dropShadow_96_4570"/>
<feBlend mode="normal" in="SourceGraphic" in2="effect1_dropShadow_96_4570" result="shape"/>
</filter>
<filter id="filter1_d_96_4570" x="622.457" y="175.515" width="226.032" height="323.336" filterUnits="userSpaceOnUse" color-interpolation-filters="sRGB">
<feFlood flood-opacity="0" result="BackgroundImageFix"/>
<feColorMatrix in="SourceAlpha" type="matrix" values="0 0 0 0 0 0 0 0 0 0 0 0 0 0 0 0 0 0 127 0" result="hardAlpha"/>
<feOffset dy="63.8101"/>
<feGaussianBlur stdDeviation="6.71686"/>
<feColorMatrix type="matrix" values="0 0 0 0 0 0 0 0 0 0 0 0 0 0 0 0 0 0 0.25 0"/>
<feBlend mode="normal" in2="BackgroundImageFix" result="effect1_dropShadow_96_4570"/>
<feBlend mode="normal" in="SourceGraphic" in2="effect1_dropShadow_96_4570" result="shape"/>
</filter>
<filter id="filter2_d_96_4570" x="317.77" y="175.314" width="541.044" height="646.083" filterUnits="userSpaceOnUse" color-interpolation-filters="sRGB">
<feFlood flood-opacity="0" result="BackgroundImageFix"/>
<feColorMatrix in="SourceAlpha" type="matrix" values="0 0 0 0 0 0 0 0 0 0 0 0 0 0 0 0 0 0 127 0" result="hardAlpha"/>
<feOffset dy="23.7574"/>
<feGaussianBlur stdDeviation="11.8787"/>
<feColorMatrix type="matrix" values="0 0 0 0 0 0 0 0 0 0 0 0 0 0 0 0 0 0 0.25 0"/>
<feBlend mode="normal" in2="BackgroundImageFix" result="effect1_dropShadow_96_4570"/>
<feBlend mode="normal" in="SourceGraphic" in2="effect1_dropShadow_96_4570" result="shape"/>
</filter>
<linearGradient id="paint0_linear_96_4570" x1="755.482" y1="175.316" x2="755.482" y2="843.007" gradientUnits="userSpaceOnUse">
<stop offset="0.322917" stop-color="white"/>
<stop offset="0.875" stop-color="white"/>
</linearGradient>
<linearGradient id="paint1_linear_96_4570" x1="755.482" y1="175.316" x2="755.482" y2="843.007" gradientUnits="userSpaceOnUse">
<stop offset="0.322917" stop-color="white"/>
<stop offset="0.875" stop-color="white"/>
</linearGradient>
<linearGradient id="paint2_linear_96_4570" x1="223.314" y1="293.535" x2="223.314" y2="970.191" gradientUnits="userSpaceOnUse">
<stop offset="0.203438" stop-color="white"/>
<stop offset="0.708333" stop-color="#F0F0F0"/>
<stop offset="0.916667" stop-color="#E1E1E1"/>
</linearGradient>
<linearGradient id="paint3_linear_96_4570" x1="223.314" y1="293.535" x2="223.314" y2="970.191" gradientUnits="userSpaceOnUse">
<stop offset="0.203438" stop-color="white"/>
<stop offset="0.708333" stop-color="#F0F0F0"/>
<stop offset="0.916667" stop-color="#E1E1E1"/>
</linearGradient>
<linearGradient id="paint4_linear_96_4570" x1="1.05385e+06" y1="83876.2" x2="1.05203e+06" y2="83876.2" gradientUnits="userSpaceOnUse">
<stop stop-color="#3AA1E2"/>
<stop offset="0.14" stop-color="white" stop-opacity="0.83"/>
<stop offset="0.44" stop-color="white" stop-opacity="0.48"/>
<stop offset="0.69" stop-color="white" stop-opacity="0.22"/>
<stop offset="0.89" stop-color="white" stop-opacity="0.06"/>
<stop offset="1" stop-color="#F7F7F7" stop-opacity="0"/>
</linearGradient>
<linearGradient id="paint5_linear_96_4570" x1="143.207" y1="298.167" x2="197.255" y2="298.167" gradientUnits="userSpaceOnUse">
<stop stop-color="#A2ADB4"/>
<stop offset="0.14" stop-color="#A2ADB4" stop-opacity="0.83"/>
<stop offset="0.44" stop-color="#A2ADB4" stop-opacity="0.48"/>
<stop offset="0.69" stop-color="#A2ADB4" stop-opacity="0.22"/>
<stop offset="0.89" stop-color="#A2ADB4" stop-opacity="0.06"/>
<stop offset="1" stop-color="#A2ADB4" stop-opacity="0"/>
</linearGradient>
<linearGradient id="paint6_linear_96_4570" x1="886.813" y1="230.374" x2="762.087" y2="230.374" gradientUnits="userSpaceOnUse">
<stop offset="0.482245" stop-color="#A2ADB4"/>
<stop offset="0.965253" stop-color="white" stop-opacity="0"/>
</linearGradient>
</defs>
</svg>
