<svg width="28" height="28" viewBox="0 0 28 28" fill="none" xmlns="http://www.w3.org/2000/svg">
<path d="M5.83333 20.9997H22.1667V12.8692C22.1667 8.33901 18.5103 4.66634 14 4.66634C9.48967 4.66634 5.83333 8.33901 5.83333 12.8692V20.9997ZM14 2.33301C19.7983 2.33301 24.5 7.04984 24.5 12.8692V23.333H3.5V12.8692C3.5 7.04984 8.20167 2.33301 14 2.33301ZM11.0833 24.4997H16.9167C16.9167 25.2732 16.6094 26.0151 16.0624 26.5621C15.5154 27.1091 14.7735 27.4163 14 27.4163C13.2265 27.4163 12.4846 27.1091 11.9376 26.5621C11.3906 26.0151 11.0833 25.2732 11.0833 24.4997Z" fill="black"/>
</svg>
